<mxfile host="app.diagrams.net" modified="2021-12-07T18:48:48.041Z" agent="5.0 (Windows NT 10.0; Win64; x64) AppleWebKit/537.36 (KHTML, like Gecko) Chrome/95.0.4638.69 Safari/537.36 OPR/81.0.4196.61" etag="NCSs7aG4mOrYf03Fv9VO" version="15.9.1" type="github">
  <diagram id="VXX5K5tZXgFrecd3hQVb" name="Page-1">
    <mxGraphModel dx="636" dy="635" grid="1" gridSize="10" guides="1" tooltips="1" connect="1" arrows="1" fold="1" page="1" pageScale="1" pageWidth="850" pageHeight="1100" math="0" shadow="0">
      <root>
        <mxCell id="0" />
        <mxCell id="1" parent="0" />
        <mxCell id="koRzDBdORZ_WM_0FZJkh-6" value="UI" style="shape=umlLifeline;perimeter=lifelinePerimeter;whiteSpace=wrap;html=1;container=1;collapsible=0;recursiveResize=0;outlineConnect=0;" vertex="1" parent="1">
          <mxGeometry x="495" y="40" width="100" height="300" as="geometry" />
        </mxCell>
        <mxCell id="koRzDBdORZ_WM_0FZJkh-7" value="DataManager" style="shape=umlLifeline;perimeter=lifelinePerimeter;whiteSpace=wrap;html=1;container=1;collapsible=0;recursiveResize=0;outlineConnect=0;" vertex="1" parent="1">
          <mxGeometry x="255" y="40" width="100" height="300" as="geometry" />
        </mxCell>
        <mxCell id="koRzDBdORZ_WM_0FZJkh-20" value="" style="html=1;points=[];perimeter=orthogonalPerimeter;" vertex="1" parent="koRzDBdORZ_WM_0FZJkh-7">
          <mxGeometry x="45" y="80" width="10" height="40" as="geometry" />
        </mxCell>
        <mxCell id="koRzDBdORZ_WM_0FZJkh-21" value="addUI()" style="edgeStyle=orthogonalEdgeStyle;html=1;align=left;spacingLeft=2;endArrow=block;rounded=0;entryX=1;entryY=0;strokeWidth=3;" edge="1" target="koRzDBdORZ_WM_0FZJkh-20" parent="koRzDBdORZ_WM_0FZJkh-7" source="koRzDBdORZ_WM_0FZJkh-7">
          <mxGeometry relative="1" as="geometry">
            <mxPoint x="75" y="200" as="sourcePoint" />
            <Array as="points">
              <mxPoint x="105" y="50" />
              <mxPoint x="105" y="80" />
              <mxPoint x="55" y="80" />
            </Array>
          </mxGeometry>
        </mxCell>
        <mxCell id="koRzDBdORZ_WM_0FZJkh-10" value="Producer" style="shape=umlLifeline;perimeter=lifelinePerimeter;whiteSpace=wrap;html=1;container=1;collapsible=0;recursiveResize=0;outlineConnect=0;" vertex="1" parent="1">
          <mxGeometry x="20" y="40" width="100" height="300" as="geometry" />
        </mxCell>
        <mxCell id="koRzDBdORZ_WM_0FZJkh-12" value="addData(data)" style="html=1;verticalAlign=bottom;startArrow=oval;startFill=1;endArrow=block;startSize=8;rounded=0;strokeWidth=3;fontStyle=4" edge="1" parent="1" source="koRzDBdORZ_WM_0FZJkh-10" target="koRzDBdORZ_WM_0FZJkh-7">
          <mxGeometry width="60" relative="1" as="geometry">
            <mxPoint x="200" y="270" as="sourcePoint" />
            <mxPoint x="260" y="270" as="targetPoint" />
            <Array as="points">
              <mxPoint x="180" y="220" />
            </Array>
          </mxGeometry>
        </mxCell>
        <mxCell id="koRzDBdORZ_WM_0FZJkh-13" value="update()" style="html=1;verticalAlign=bottom;endArrow=block;rounded=0;strokeWidth=3;" edge="1" parent="1" source="koRzDBdORZ_WM_0FZJkh-7" target="koRzDBdORZ_WM_0FZJkh-6">
          <mxGeometry width="80" relative="1" as="geometry">
            <mxPoint x="190" y="270" as="sourcePoint" />
            <mxPoint x="270" y="270" as="targetPoint" />
            <Array as="points">
              <mxPoint x="430" y="170" />
            </Array>
          </mxGeometry>
        </mxCell>
        <mxCell id="koRzDBdORZ_WM_0FZJkh-23" value="return (void)" style="html=1;verticalAlign=bottom;endArrow=open;dashed=1;endSize=8;rounded=0;strokeWidth=3;" edge="1" parent="1" source="koRzDBdORZ_WM_0FZJkh-6" target="koRzDBdORZ_WM_0FZJkh-7">
          <mxGeometry relative="1" as="geometry">
            <mxPoint x="390" y="270" as="sourcePoint" />
            <mxPoint x="310" y="270" as="targetPoint" />
          </mxGeometry>
        </mxCell>
        <mxCell id="koRzDBdORZ_WM_0FZJkh-24" value="return (void)" style="html=1;verticalAlign=bottom;endArrow=open;dashed=1;endSize=8;rounded=0;strokeWidth=3;" edge="1" parent="1" source="koRzDBdORZ_WM_0FZJkh-7" target="koRzDBdORZ_WM_0FZJkh-10">
          <mxGeometry relative="1" as="geometry">
            <mxPoint x="389.83000000000027" y="310" as="sourcePoint" />
            <mxPoint x="149.99666666666664" y="310" as="targetPoint" />
            <Array as="points">
              <mxPoint x="200" y="240" />
            </Array>
          </mxGeometry>
        </mxCell>
        <mxCell id="koRzDBdORZ_WM_0FZJkh-25" value="update()" style="html=1;verticalAlign=bottom;endArrow=block;rounded=0;strokeWidth=3;" edge="1" parent="1" source="koRzDBdORZ_WM_0FZJkh-7" target="koRzDBdORZ_WM_0FZJkh-6">
          <mxGeometry width="80" relative="1" as="geometry">
            <mxPoint x="329.9966666666666" y="300" as="sourcePoint" />
            <mxPoint x="569.8300000000003" y="300" as="targetPoint" />
            <Array as="points">
              <mxPoint x="455" y="260" />
            </Array>
          </mxGeometry>
        </mxCell>
        <mxCell id="koRzDBdORZ_WM_0FZJkh-26" value="return (void)" style="html=1;verticalAlign=bottom;endArrow=open;dashed=1;endSize=8;rounded=0;strokeWidth=3;" edge="1" parent="1" source="koRzDBdORZ_WM_0FZJkh-6" target="koRzDBdORZ_WM_0FZJkh-7">
          <mxGeometry relative="1" as="geometry">
            <mxPoint x="554.5000000000002" y="200" as="sourcePoint" />
            <mxPoint x="314.66666666666663" y="200" as="targetPoint" />
            <Array as="points">
              <mxPoint x="420" y="280" />
            </Array>
          </mxGeometry>
        </mxCell>
      </root>
    </mxGraphModel>
  </diagram>
</mxfile>
